<svg width="256" height="256" viewBox="0 0 256 256" fill="none" xmlns="http://www.w3.org/2000/svg">
<path d="M185.99 36.0001C224.101 36.0001 255 66.9949 255 104.933V173C255 211.66 223.66 243 185 243H94.0114C55.8997 243 25.0001 212.005 25.0001 174.067V124.058C32.1953 126.602 39.9338 128 48.0001 128C86.1078 128 117 97.1077 117 59C117 50.9338 115.602 43.1952 113.058 36.0001H185.99ZM94.0002 151H117V128H94.0002V151ZM163 151H186V128H163V151ZM42.5871 16.6724C44.6172 11.7758 51.3831 11.7759 53.4132 16.6724L56.3219 23.7027C61.2888 35.6947 70.5578 45.271 82.2081 50.4537L90.4626 54.126C95.1808 56.2284 95.1802 63.0963 90.4626 65.1993L81.7252 69.085C70.3673 74.1367 61.264 83.3737 56.2096 94.9712L53.3683 101.474C51.2931 106.236 44.7071 106.236 42.6319 101.474L39.7906 94.9712C34.736 83.3738 25.6332 74.1367 14.275 69.085L5.53766 65.1993C0.821054 63.0963 0.820503 56.2284 5.53766 54.126L13.7921 50.4537C25.4422 45.2711 34.7113 35.6951 39.6784 23.7027L42.5871 16.6724Z" fill="url(#paint0_linear_1_8)"/>
<defs>
<linearGradient id="paint0_linear_1_8" x1="255.359" y1="242.64" x2="25.7194" y2="41.0305" gradientUnits="userSpaceOnUse">
<stop stop-color="#3E6EFF"/>
<stop offset="1" stop-color="#6AC6FF"/>
</linearGradient>
</defs>
</svg>
